<svg width="34" height="34" viewBox="0 0 34 34" fill="none" xmlns="http://www.w3.org/2000/svg">
<path d="M27.0273 0H6.97266C3.12793 0 0 3.12793 0 6.97266V27.0273C0 30.8721 3.12793 34 6.97266 34H27.0273C30.8721 34 34 30.8721 34 27.0273V6.97266C34 3.12793 30.8721 0 27.0273 0ZM10.4689 26.1983C10.1617 26.7302 9.60254 27.0279 9.02833 27.028C8.74683 27.028 8.46182 26.9565 8.20104 26.8059C7.40828 26.3483 7.13568 25.3309 7.59336 24.5382L7.91988 23.9727H11.7538L10.4689 26.1983ZM7.33789 22.6445C6.42248 22.6445 5.67773 21.8998 5.67773 20.9844C5.67773 20.069 6.42248 19.3242 7.33789 19.3242H10.6036L15.083 11.5657L13.869 9.46302C13.4113 8.67027 13.6839 7.65292 14.4766 7.19518H14.4767C15.2695 6.73751 16.2868 7.01018 16.7445 7.80287L17 8.24547L17.2555 7.80293C17.7134 7.01011 18.7307 6.73758 19.5233 7.19525C19.9073 7.41698 20.1821 7.77498 20.2968 8.2033C20.4116 8.63162 20.3527 9.07906 20.1309 9.46309L14.4376 19.3242H18.0288L19.9458 22.6445H7.33789ZM26.6621 22.6445H25.3133L26.4066 24.5381C26.8643 25.3308 26.5917 26.3481 25.799 26.8059C25.5432 26.9536 25.2592 27.0291 24.9715 27.0291C24.8273 27.0291 24.6823 27.0101 24.5392 26.9718C24.1108 26.8569 23.7528 26.5822 23.5311 26.1981L17.7667 16.2141L19.6837 12.8938L23.3964 19.3242H26.6621C27.5775 19.3242 28.3223 20.069 28.3223 20.9844C28.3223 21.8998 27.5775 22.6445 26.6621 22.6445Z" fill="#032252"/>
</svg>
