<svg width="24" height="24" viewBox="0 0 24 24" fill="none" xmlns="http://www.w3.org/2000/svg">
<path opacity="0.3" d="M0 7.0992V16.9008C0 21.1476 2.7312 24 6.798 24H17.202C21.2688 24 24 21.1476 24 16.9008V7.0992C24 2.8536 21.2676 0 17.2008 0H6.798C2.7312 0 0 2.8536 0 7.0992Z" fill="white"/>
<path d="M6.86483 13.0265L11.3624 17.5445C11.7008 17.8841 12.2996 17.8841 12.6392 17.5445L17.1368 13.0265C17.4872 12.6737 17.486 12.1037 17.1332 11.7533C16.7804 11.4029 16.2116 11.4029 15.86 11.7557L12.8996 14.7281V7.10215C12.8996 6.60415 12.4964 6.20215 11.9996 6.20215C11.5028 6.20215 11.0996 6.60415 11.0996 7.10215V14.7281L8.14043 11.7557C7.96403 11.5793 7.73363 11.4917 7.50203 11.4917C7.27283 11.4917 7.04243 11.5793 6.86723 11.7533C6.51563 12.1037 6.51444 12.6737 6.86483 13.0265Z" fill="white"/>
</svg>
