<svg width="797" height="797" viewBox="0 0 797 797" fill="none" xmlns="http://www.w3.org/2000/svg">
<path opacity="0.6" d="M741.59 392.445C744.898 581.964 593.944 738.281 404.425 741.589C214.905 744.897 58.5881 593.943 55.28 404.424C51.9719 214.905 202.926 58.5875 392.445 55.2794C581.964 51.9713 738.282 202.925 741.59 392.445Z" stroke="#EEEEEE"/>
<path opacity="0.6" d="M789.534 391.608C793.305 607.606 621.26 785.764 405.262 789.534C189.263 793.304 11.1056 621.26 7.33532 405.261C3.56505 189.263 175.61 11.1054 391.608 7.33509C607.606 3.56483 785.764 175.61 789.534 391.608Z" stroke="#EEEEEE"/>
<path opacity="0.4" d="M693.03 393.292C695.87 555.992 566.277 690.189 403.577 693.029C240.877 695.869 106.68 566.276 103.84 403.576C101 240.876 230.592 106.679 393.293 103.839C555.993 100.999 690.19 230.591 693.03 393.292Z" fill="url(#paint0_radial_1_453)" stroke="#EEEEEE"/>
<path opacity="0.4" d="M634.189 394.319C636.462 524.522 532.753 631.915 402.55 634.188C272.347 636.461 164.953 532.752 162.681 402.549C160.408 272.345 264.116 164.952 394.32 162.679C524.523 160.407 631.916 264.115 634.189 394.319Z" fill="url(#paint1_radial_1_453)" stroke="#EEEEEE"/>
<path opacity="0.4" d="M577.131 395.314C578.854 494.006 500.245 575.407 401.554 577.13C302.863 578.853 221.461 500.244 219.738 401.553C218.016 302.861 296.624 221.46 395.316 219.737C494.007 218.014 575.409 296.623 577.131 395.314Z" fill="url(#paint2_radial_1_453)" stroke="#EEEEEE"/>
<defs>
<radialGradient id="paint0_radial_1_453" cx="0" cy="0" r="1" gradientUnits="userSpaceOnUse" gradientTransform="translate(398.435 398.434) rotate(156.994) scale(370.533)">
<stop offset="0.481524" stop-color="white"/>
<stop offset="0.730061" stop-color="white" stop-opacity="0.54"/>
<stop offset="1" stop-color="#88A4CD" stop-opacity="0.0364583"/>
</radialGradient>
<radialGradient id="paint1_radial_1_453" cx="0" cy="0" r="1" gradientUnits="userSpaceOnUse" gradientTransform="translate(398.435 398.434) rotate(156.994) scale(296.65)">
<stop offset="0.481524" stop-color="white"/>
<stop offset="0.730061" stop-color="white" stop-opacity="0.54"/>
<stop offset="1" stop-color="#88A4CD" stop-opacity="0.0364583"/>
</radialGradient>
<radialGradient id="paint2_radial_1_453" cx="0" cy="0" r="1" gradientUnits="userSpaceOnUse" gradientTransform="translate(398.435 398.434) rotate(156.994) scale(225.006)">
<stop offset="0.481524" stop-color="white"/>
<stop offset="0.730061" stop-color="white" stop-opacity="0.54"/>
<stop offset="1" stop-color="#88A4CD" stop-opacity="0.0364583"/>
</radialGradient>
</defs>
</svg>
