      <svg width="1440" height="630" viewBox="0 0 1440 630" class="" fill="none"  fill-opacity="0.9" stroke-opacity="0.8" xmlns="http://www.w3.org/2000/svg">
        <rect width="1855" height="1841" transform="translate(-6 -353)" fill="white" />
        <path d="M191.333 -304.008L111.641 -331.609L10.5594 -204.298V-35.586L84.0419 5.81583L191.333 -304.008Z"
          fill="#DCDCDC" />
        <path
          d="M10.5594 -11.4351V124.501C10.5594 124.501 56.4428 111.39 56.4428 56.5329C56.4428 5.81569 10.5594 -11.4351 10.5594 -11.4351Z"
          fill="#DCDCDC" />
        <path
          d="M975.836 -155.306L946.167 -59.3921L1203.87 31.6919L1228.71 -12.8151L1274.6 -39.3812L1347.73 -178.767L1313.92 -212.234L1178 -101.484L1144.88 -101.829L1048.63 -224.654L983.08 -180.492L1030.34 -110.109L1070.71 -145.991L1084.51 -121.15L1041.73 -93.2036L1074.5 -45.5915L1058.63 -37.6562L975.836 -155.306Z"
          fill="#DCDCDC" />
        <path d="M1451.92 -29.376L1429.49 125.536L1282.87 59.2929L1314.61 12.0258L1451.92 -29.376Z" fill="#0C79F8" />
        <path d="M1423.63 417.764L1342.21 497.807L1502.29 473.311L1535.06 435.704L1423.63 417.764Z" fill="#DCDCDC" />
        <path
          d="M1270.46 392.578L1164.54 459.165C1164.54 459.165 1181.45 481.937 1184.9 490.907C1188 499.187 1188.69 526.443 1188.69 526.443L1311.85 505.053L1408.45 415.004L1270.46 392.578Z"
          fill="#DCDCDC" />
        <path
          d="M1528.85 212.135C1528.85 212.135 1418.46 140.027 1379.47 120.016C1347.39 103.455 1245.96 64.8132 1245.96 64.8132L1109 348.07L1272.87 375.327L1528.85 212.135Z"
          fill="#0C79F8" />
        <path
          d="M1249.41 389.127L1097.96 364.286L1088.65 382.227C1088.65 382.227 1119.7 403.963 1128.32 412.933C1136.6 421.214 1156.61 449.85 1156.61 449.85L1249.41 389.127Z"
          fill="#DCDCDC" />
        <path
          d="M1500.91 256.297L1301.5 380.157L1485.38 410.863C1485.38 410.863 1496.42 341.515 1498.84 317.709C1500.22 302.529 1500.91 256.297 1500.91 256.297Z"
          fill="#0C79F8" />
        <path
          d="M1077.61 398.788C1077.61 398.788 1103.48 413.969 1110.73 420.524C1119.01 427.424 1139.7 452.61 1139.7 452.61L1059.67 507.123C1059.67 507.123 1051.73 498.497 1048.97 496.082C1046.21 493.667 1037.59 487.802 1037.59 487.802L1077.61 398.788Z"
          fill="#0C79F8" />
        <path
          d="M1149.36 470.551L1070.02 523.338C1070.02 523.338 1072.78 529.894 1073.47 531.964C1074.5 534.724 1076.23 542.314 1076.23 542.314L1170.75 526.098C1170.75 526.098 1167.65 499.877 1164.2 491.597C1161.78 486.077 1149.36 470.551 1149.36 470.551Z"
          fill="#0C79F8" />
        <path
          d="M1167.65 615.112L1077.26 573.02C1077.26 573.02 1077.95 566.465 1078.3 564.395C1078.3 561.98 1078.3 555.08 1078.3 555.08L1171.1 545.074C1171.1 545.074 1171.44 567.155 1171.1 574.4C1170.75 583.371 1167.65 615.112 1167.65 615.112Z"
          fill="#0C79F8" />
        <path d="M1190.07 542.659L1185.93 623.738L1263.9 550.939V536.104L1190.07 542.659Z" fill="#DCDCDC" />
        <path d="M1201.8 631.673L1271.84 564.395L1407.07 629.258L1364.29 709.991L1201.8 631.673Z" fill="#DCDCDC" />
        <path d="M1440.19 575.435L1413.63 616.837L1284.6 551.974L1314.61 520.923H1376.71L1440.19 575.435Z"
          fill="#DCDCDC" />
        <path d="M1391.55 512.298L1485.73 492.977L1447.43 554.735L1391.55 512.298Z" fill="#DCDCDC" />
        <path
          d="M1615.44 660.309L1577.49 616.837H1546.79L1504.36 662.724H1468.48L1425.7 645.819L1383.27 719.307L1500.91 776.234L1615.44 660.309Z"
          fill="#DCDCDC" />
        <path d="M1454.68 580.956L1431.22 626.843L1465.03 645.819H1499.53L1514.02 628.913L1454.68 580.956Z"
          fill="#DCDCDC" />
        <path d="M1219.4 36.8672L1267.7 54.1179L1293.22 6.50584L1273.91 -16.2651L1237.34 -0.394454L1219.4 36.8672Z"
          fill="#DCDCDC" />
        <path d="M1062.43 0.640503L1017.92 82.409L1144.19 225.59L1230.44 59.6381L1062.43 0.640503Z" fill="#DCDCDC" />
        <path d="M1043.8 -5.91494L1001.02 68.6083L946.512 18.9262L943.407 -41.1064L1043.8 -5.91494Z" fill="#DCDCDC" />
        <path d="M929.262 2.02051L864.06 68.6084L914.083 220.415L943.407 186.604L929.262 2.02051Z" fill="#DCDCDC" />
        <path d="M948.927 208.339L878.549 324.955L903.733 384.642L961.001 361.181L948.927 208.339Z" fill="#DCDCDC" />
        <path
          d="M972.386 229.73L979.975 361.181C979.975 361.181 1021.72 358.076 1035.17 361.181C1045.18 363.596 1072.43 379.122 1072.43 379.122L1078.3 361.181L972.386 229.73Z"
          fill="#DCDCDC" />
        <path d="M963.071 125.536V199.024L1088.65 344.62L1111.07 296.318L963.071 125.536Z" fill="#DCDCDC" />
        <path d="M953.411 47.9075L956.171 98.6247L982.735 115.53L993.775 85.1691L953.411 47.9075Z" fill="#DCDCDC" />
        <path d="M1006.88 98.6248L996.535 125.536L1120.39 278.033L1136.26 241.461L1006.88 98.6248Z" fill="#DCDCDC" />
        <path
          d="M988.255 379.122H1032.41L1066.57 394.648L1024.48 481.246C1024.48 481.246 1011.37 477.451 1006.54 476.761C1001.71 476.071 987.22 476.416 987.22 476.416L988.255 379.122Z"
          fill="#0C79F8" />
        <path
          d="M969.281 379.122L913.393 403.273L959.621 484.007C959.621 484.007 963.761 482.281 965.141 481.591C966.521 480.901 971.006 479.521 971.006 479.521L969.281 379.122Z"
          fill="#0C79F8" />
        <path
          d="M849.57 455.025L896.833 408.448L947.202 490.562C947.202 490.562 943.752 492.977 942.372 494.012C941.337 495.047 937.887 497.807 937.887 497.807L849.57 455.025Z"
          fill="#0C79F8" />
        <path d="M843.705 85.1692L778.158 142.442L867.164 302.529L903.733 234.906L843.705 85.1692Z" fill="#DCDCDC" />
        <path d="M800.237 228.005L697.775 382.227L828.871 445.02L887.519 389.472L800.237 228.005Z" fill="#DCDCDC" />
        <path d="M788.852 208.34L680.181 373.947L513.552 293.558L758.148 153.827L788.852 208.34Z" fill="#DCDCDC" />
        <path d="M772.983 123.466L927.537 -20.7505L926.502 -46.6267L702.605 -124.945L679.146 -99.759L772.983 123.466Z"
          fill="#DCDCDC" />
        <path d="M662.242 -91.8235L564.265 -36.6211L616.703 61.7082L706.745 13.4061L662.242 -91.8235Z" fill="#DCDCDC" />
        <path d="M627.743 76.1988L676.386 185.569L751.594 138.647L709.505 33.762L627.743 76.1988Z" fill="#DCDCDC" />
        <path d="M394.186 -105.279L441.794 8.92085L647.062 -107.349L646.372 -144.611L542.186 -180.837L394.186 -105.279Z"
          fill="#DCDCDC" />
        <path d="M548.741 -31.791L437.309 40.6621L513.897 280.448L662.242 193.849L548.741 -31.791Z" fill="#DCDCDC" />
        <path d="M366.587 -142.886L409.71 19.6163H180.293L366.587 -142.886Z" fill="#DCDCDC" />
        <path d="M158.904 38.5922L96.1165 93.1046L207.203 146.237L396.946 33.762L158.904 38.5922Z" fill="#DCDCDC" />
        <path d="M223.072 153.827L351.752 215.93L409.71 46.8726L223.072 153.827Z" fill="#DCDCDC" />
        <path d="M424.89 56.5328L366.932 223.175L497.337 285.968L424.89 56.5328Z" fill="#DCDCDC" />
        <path d="M105.776 364.286L343.818 252.501L69.5524 116.22L105.776 364.286Z" fill="#DCDCDC" />
        <path d="M10.5594 438.81L83.6968 373.947L48.5081 134.506L7.7995 170.388L10.5594 438.81Z" fill="#DCDCDC" />
        <path d="M86.1118 392.233L10.5594 461.236V587.856L52.993 619.252L117.851 608.902L86.1118 392.233Z"
          fill="#DCDCDC" />
        <path
          d="M316.219 291.833L108.536 381.882L111.986 404.653C111.986 404.653 166.149 380.157 193.748 381.882C210.652 382.917 255.846 406.723 255.846 406.723L316.219 291.833Z"
          fill="#DCDCDC" />
        <path
          d="M121.99 416.729C121.99 416.729 175.464 394.993 194.093 396.373C208.582 397.408 246.531 420.869 246.531 420.869L203.753 520.578L121.99 416.729Z"
          fill="#DCDCDC" />
        <path d="M114.746 426.044L140.965 605.452L162.009 602.002L194.783 536.104L114.746 426.044Z" fill="#DCDCDC" />
        <path d="M206.513 552.665L187.538 597.862L242.046 589.236L206.513 552.665Z" fill="#DCDCDC" />
        <path d="M334.848 301.494L300.004 368.081L351.752 375.672L334.848 301.494Z" fill="#DCDCDC" />
        <path d="M293.45 382.917L219.277 533.344L259.641 586.476L394.186 565.43L354.512 389.817L293.45 382.917Z"
          fill="#DCDCDC" />
        <path d="M353.477 257.332L409.71 525.753L491.473 419.489L554.26 482.626L605.663 382.572L353.477 257.332Z"
          fill="#DCDCDC" />
        <path d="M491.473 441.225L412.815 552.665V562.325L578.409 536.104L491.473 441.225Z" fill="#DCDCDC" />
        <path d="M622.223 390.853L591.174 454.335L679.146 497.462L710.54 434.669L622.223 390.853Z" fill="#DCDCDC" />
        <path d="M582.549 467.791L568.75 497.462L597.729 532.999L674.661 520.923L582.549 467.791Z" fill="#DCDCDC" />
        <path d="M729.859 444.33L696.395 520.923L791.957 570.95L806.102 481.936L729.859 444.33Z" fill="#DCDCDC" />
        <path d="M821.971 649.614L796.787 588.546L710.195 662.034L740.209 704.126L821.971 649.614Z" fill="#DCDCDC" />
        <path
          d="M915.118 532.999C915.118 532.999 913.048 540.589 912.358 543.004C911.668 545.764 910.978 554.044 910.978 554.044L812.656 570.95L821.626 489.527L915.118 532.999Z"
          fill="#0C79F8" />
        <path
          d="M821.971 585.786L844.74 641.333L918.223 594.411C918.223 594.411 914.428 584.751 913.393 581.301C912.703 578.196 910.978 568.535 910.978 568.535L821.971 585.786Z"
          fill="#0C79F8" />
        <path
          d="M851.295 660.654L925.467 607.522C925.467 607.522 932.367 616.492 935.127 618.907C938.232 622.013 948.237 629.603 948.237 629.603L904.768 709.646L851.295 660.654Z"
          fill="#0C79F8" />
        <path
          d="M1097.27 704.126L1150.74 650.304L1063.46 606.832C1063.46 606.832 1058.98 613.042 1057.25 614.767C1055.53 616.837 1049.66 622.358 1049.66 622.358L1097.27 704.126Z"
          fill="#0C79F8" />
        <path d="M151.66 677.215L764.013 579.231L679.146 542.659L144.76 630.293L151.66 677.215Z" fill="#DCDCDC" />
        <path d="M154.074 692.741L159.939 733.797L689.841 656.859L757.458 599.586L154.074 692.741Z" fill="#DCDCDC" />
        <path
          d="M994.12 605.107C1020.6 605.107 1042.07 583.636 1042.07 557.15C1042.07 530.664 1020.6 509.193 994.12 509.193C967.636 509.193 946.167 530.664 946.167 557.15C946.167 583.636 967.636 605.107 994.12 605.107Z"
          fill="#DCDCDC" />
        <path d="M56.4428 123.466L258.606 1487.66" stroke="#B6D9F7" stroke-width="2" stroke-miterlimit="10" />
        <path
          d="M455.939 -222.584L1169.03 26.5166L1341.87 93.4495L1438.46 144.167L1554.04 220.07L1683.75 307.014L1846.93 424.664"
          stroke="#B6D9F7" stroke-width="2" stroke-miterlimit="10" />
      </svg>
