<svg width="32" height="35" viewBox="0 0 32 35" fill="none" xmlns="http://www.w3.org/2000/svg">
<path d="M6.38299 0.545916C5.04752 -0.192218 3.47952 -0.175151 2.15259 0.556583L17.7046 14.9033L22.9291 9.67872L6.38299 0.545916Z" fill="#032252"/>
<path d="M0.597333 2.02417C0.2176 2.64497 0 3.35537 0 4.10844V30.0199C0 30.7495 0.1984 31.445 0.5568 32.053L16.1963 16.4135L0.597333 2.02417Z" fill="#032252"/>
<path d="M29.8561 13.5018L24.8726 10.752L19.2726 16.3498L26.1355 22.6794L29.8582 20.625C31.1979 19.8826 32.0001 18.5514 32.0001 17.0624C31.9979 15.5733 31.1979 14.2421 29.8561 13.5018Z" fill="#032252"/>
<path d="M17.7643 17.8608L2.08215 33.543C2.76269 33.9312 3.50935 34.136 4.26029 34.136C4.98562 34.136 5.71522 33.9526 6.38296 33.5835L24.1686 23.768L17.7643 17.8608Z" fill="#032252"/>
</svg>
